<svg height="1550" width="720" xmlns="http://www.w3.org/2000/svg">
<rect height="1550" fill="#555" width="720"></rect>
<text fill="#7f7" font-family="Courier New" font-size="12" xml:space="preserve">
<tspan x="10" y="26">└─┬ node-pushserver@0.5.4 </tspan>
<tspan x="10" y="42">  ├─┬ apn@1.3.8 </tspan>
<tspan x="10" y="58">  │ └── q@0.9.7 </tspan>
<tspan x="10" y="74">  ├─┬ commander@2.7.1 </tspan>
<tspan x="10" y="90">  │ └── graceful-readlink@1.0.1 </tspan>
<tspan x="10" y="106">  ├─┬ express@3.2.6 </tspan>
<tspan x="10" y="122">  │ ├── buffer-crc32@0.2.1 </tspan>
<tspan x="10" y="138">  │ ├── commander@0.6.1 </tspan>
<tspan x="10" y="154">  │ ├─┬ connect@2.7.11 </tspan>
<tspan x="10" y="170">  │ │ ├── bytes@0.2.0 </tspan>
<tspan x="10" y="186">  │ │ ├── cookie@0.0.5 </tspan>
<tspan x="10" y="202">  │ │ ├── formidable@1.0.14 </tspan>
<tspan x="10" y="218">  │ │ ├── pause@0.0.1 </tspan>
<tspan x="10" y="234">  │ │ ├── qs@0.6.5 </tspan>
<tspan x="10" y="250">  │ │ └─┬ send@0.1.1 </tspan>
<tspan x="10" y="266">  │ │   └── mime@1.2.11 </tspan>
<tspan x="10" y="282">  │ ├── cookie@0.1.0 </tspan>
<tspan x="10" y="298">  │ ├── cookie-signature@1.0.1 </tspan>
<tspan x="10" y="314">  │ ├─┬ debug@2.6.3 </tspan>
<tspan x="10" y="330">  │ │ └── ms@0.7.2 </tspan>
<tspan x="10" y="346">  │ ├── fresh@0.1.0 </tspan>
<tspan x="10" y="362">  │ ├── methods@0.0.1 </tspan>
<tspan x="10" y="378">  │ ├── mkdirp@0.3.4 </tspan>
<tspan x="10" y="394">  │ ├── range-parser@0.0.4 </tspan>
<tspan x="10" y="410">  │ └─┬ send@0.1.0 </tspan>
<tspan x="10" y="426">  │   └── mime@1.2.6 </tspan>
<tspan x="10" y="442">  ├── lodash@1.3.1 </tspan>
<tspan x="10" y="458">  ├─┬ mongoose@3.6.20 </tspan>
<tspan x="10" y="474">  │ ├── hooks@0.2.1 </tspan>
<tspan x="10" y="490">  │ ├─┬ mongodb@1.3.19 </tspan>
<tspan x="10" y="506">  │ │ ├── bson@0.2.2 </tspan>
<tspan x="10" y="522">  │ │ └── kerberos@0.0.3 </tspan>
<tspan x="10" y="538">  │ ├── mpath@0.1.1 </tspan>
<tspan x="10" y="554">  │ ├─┬ mpromise@0.2.1 </tspan>
<tspan x="10" y="570">  │ │ └── sliced@0.0.4 </tspan>
<tspan x="10" y="586">  │ ├── ms@0.1.0 </tspan>
<tspan x="10" y="602">  │ ├── muri@0.3.1 </tspan>
<tspan x="10" y="618">  │ ├── regexp-clone@0.0.1 </tspan>
<tspan x="10" y="634">  │ └── sliced@0.0.5 </tspan>
<tspan x="10" y="650">  └─┬ node-gcm@0.9.15 </tspan>
<tspan x="10" y="666">    ├── debug@0.8.1 </tspan>
<tspan x="10" y="682">    └─┬ request@2.81.0 </tspan>
<tspan x="10" y="698">      ├── aws-sign2@0.6.0 </tspan>
<tspan x="10" y="714">      ├── aws4@1.6.0 </tspan>
<tspan x="10" y="730">      ├── caseless@0.12.0 </tspan>
<tspan x="10" y="746">      ├─┬ combined-stream@1.0.5 </tspan>
<tspan x="10" y="762">      │ └── delayed-stream@1.0.0 </tspan>
<tspan x="10" y="778">      ├── extend@3.0.0 </tspan>
<tspan x="10" y="794">      ├── forever-agent@0.6.1 </tspan>
<tspan x="10" y="810">      ├─┬ form-data@2.1.2 </tspan>
<tspan x="10" y="826">      │ └── asynckit@0.4.0 </tspan>
<tspan x="10" y="842">      ├─┬ har-validator@4.2.1 </tspan>
<tspan x="10" y="858">      │ ├─┬ ajv@4.11.5 </tspan>
<tspan x="10" y="874">      │ │ ├── co@4.6.0 </tspan>
<tspan x="10" y="890">      │ │ └─┬ json-stable-stringify@1.0.1 </tspan>
<tspan x="10" y="906">      │ │   └── jsonify@0.0.0 </tspan>
<tspan x="10" y="922">      │ └── har-schema@1.0.5 </tspan>
<tspan x="10" y="938">      ├─┬ hawk@3.1.3 </tspan>
<tspan x="10" y="954">      │ ├── boom@2.10.1 </tspan>
<tspan x="10" y="970">      │ ├── cryptiles@2.0.5 </tspan>
<tspan x="10" y="986">      │ ├── hoek@2.16.3 </tspan>
<tspan x="10" y="1002">      │ └── sntp@1.0.9 </tspan>
<tspan x="10" y="1018">      ├─┬ http-signature@1.1.1 </tspan>
<tspan x="10" y="1034">      │ ├── assert-plus@0.2.0 </tspan>
<tspan x="10" y="1050">      │ ├─┬ jsprim@1.4.0 </tspan>
<tspan x="10" y="1066">      │ │ ├── assert-plus@1.0.0 </tspan>
<tspan x="10" y="1082">      │ │ ├── extsprintf@1.0.2 </tspan>
<tspan x="10" y="1098">      │ │ ├── json-schema@0.2.3 </tspan>
<tspan x="10" y="1114">      │ │ └── verror@1.3.6 </tspan>
<tspan x="10" y="1130">      │ └─┬ sshpk@1.11.0 </tspan>
<tspan x="10" y="1146">      │   ├── asn1@0.2.3 </tspan>
<tspan x="10" y="1162">      │   ├── assert-plus@1.0.0 </tspan>
<tspan x="10" y="1178">      │   ├── bcrypt-pbkdf@1.0.1 </tspan>
<tspan x="10" y="1194">      │   ├─┬ dashdash@1.14.1 </tspan>
<tspan x="10" y="1210">      │   │ └── assert-plus@1.0.0 </tspan>
<tspan x="10" y="1226">      │   ├── ecc-jsbn@0.1.1 </tspan>
<tspan x="10" y="1242">      │   ├─┬ getpass@0.1.6 </tspan>
<tspan x="10" y="1258">      │   │ └── assert-plus@1.0.0 </tspan>
<tspan x="10" y="1274">      │   ├── jodid25519@1.0.2 </tspan>
<tspan x="10" y="1290">      │   ├── jsbn@0.1.1 </tspan>
<tspan x="10" y="1306">      │   └── tweetnacl@0.14.5 </tspan>
<tspan x="10" y="1322">      ├── is-typedarray@1.0.0 </tspan>
<tspan x="10" y="1338">      ├── isstream@0.1.2 </tspan>
<tspan x="10" y="1354">      ├── json-stringify-safe@5.0.1 </tspan>
<tspan x="10" y="1370">      ├─┬ mime-types@2.1.15 </tspan>
<tspan x="10" y="1386">      │ └── mime-db@1.27.0 </tspan>
<tspan x="10" y="1402">      ├── oauth-sign@0.8.2 </tspan>
<tspan x="10" y="1418">      ├── performance-now@0.2.0 </tspan>
<tspan x="10" y="1434">      ├── qs@6.4.0 </tspan>
<tspan x="10" y="1450">      ├── safe-buffer@5.0.1 </tspan>
<tspan x="10" y="1466">      ├── stringstream@0.0.5 </tspan>
<tspan x="10" y="1482">      ├─┬ tough-cookie@2.3.2 </tspan>
<tspan x="10" y="1498">      │ └── punycode@1.4.1 </tspan>
<tspan x="10" y="1514">      ├── tunnel-agent@0.6.0 </tspan>
<tspan x="10" y="1530">      └── uuid@3.0.1</tspan>
</text>
</svg>
